<svg version="1.1" id="Layer_1" xmlns="http://www.w3.org/2000/svg" xmlns:xlink="http://www.w3.org/1999/xlink" x="0px" y="0px"
	 width="100%" viewBox="0 0 322 256" enable-background="new 0 0 322 256" xml:space="preserve">
<path fill="#0f0f0f" opacity="1.000000" stroke="none" 
	d="
M229.000000,257.000000 
	C152.666687,257.000000 76.833382,257.000000 1.000051,257.000000 
	C1.000034,171.666718 1.000034,86.333427 1.000017,1.000108 
	C108.333252,1.000072 215.666504,1.000072 322.999817,1.000036 
	C322.999878,86.333229 322.999878,171.666458 322.999939,256.999847 
	C291.833344,257.000000 260.666656,257.000000 229.000000,257.000000 
M139.163101,164.331543 
	C144.232666,171.191589 151.942917,168.138565 158.711166,169.462921 
	C158.711166,171.205627 158.711166,172.932129 158.711166,174.846664 
	C152.764832,175.624680 147.069473,176.369873 141.326828,177.121246 
	C141.326828,197.203644 141.326828,216.920914 141.326828,236.611115 
	C161.360458,236.611115 181.062576,236.611115 201.665131,236.611115 
	C201.665131,218.931854 201.693008,201.638367 201.656937,184.345016 
	C201.623779,168.452759 203.472336,152.987350 209.029953,137.861771 
	C211.330444,131.600754 210.848419,124.317352 211.657089,117.279152 
	C194.165619,117.279152 177.968155,117.279152 160.594986,117.279152 
	C168.292297,126.197044 168.318512,136.385193 168.877655,146.458572 
	C164.541000,146.551605 162.664658,144.332687 161.600616,140.438782 
	C160.392380,136.017120 158.969711,131.483704 156.671585,127.567299 
	C152.488846,120.439117 144.915527,118.321945 137.536209,116.080376 
	C135.872955,115.575165 133.299530,114.296005 133.163361,113.136162 
	C132.163971,104.624252 131.677994,96.052071 130.992477,87.000946 
	C135.798264,87.000946 140.134506,87.358841 144.361176,86.834114 
	C146.187103,86.607430 148.232315,84.866615 149.359039,83.244736 
	C150.408020,81.734772 150.369659,79.469391 150.870407,77.271217 
	C140.911575,77.271217 131.191910,77.271217 120.116081,77.271217 
	C120.116081,93.622894 119.670235,109.730919 120.374222,125.788536 
	C120.600060,130.939697 123.461411,136.156265 125.844444,140.983810 
	C128.519043,146.402039 132.059128,151.389038 135.138199,156.613434 
	C136.484695,158.898041 137.621384,161.306290 139.163101,164.331543 
M80.356010,17.001024 
	C78.857216,16.974602 77.357849,16.966291 75.859718,16.918850 
	C65.127869,16.579000 64.865387,16.825653 64.865234,27.419617 
	C64.864594,72.743683 64.749115,118.068207 64.929451,163.391556 
	C64.990410,178.711029 62.702225,176.925201 78.920609,177.194092 
	C83.486275,177.269806 85.164108,175.401215 85.155777,170.999146 
	C85.060852,120.844337 85.015892,70.689384 85.056702,20.534544 
	C85.059090,17.595881 84.037689,16.614706 80.356010,17.001024 
M244.864532,141.500000 
	C244.909332,150.996140 244.840240,160.494781 245.050537,169.987259 
	C245.145111,174.255310 246.189056,177.919098 251.998749,177.074921 
	C254.933929,176.648438 258.054413,177.380051 260.947845,176.831848 
	C262.442413,176.548676 264.069275,174.837585 264.815521,173.357712 
	C265.497223,172.005859 265.128479,170.096024 265.127258,168.432159 
	C265.091827,119.612854 265.044434,70.793556 264.999237,21.974249 
	C264.997772,20.392866 264.999023,18.811481 264.999023,16.868515 
	C260.893951,16.868515 257.572937,16.909462 254.253235,16.860575 
	C245.486145,16.731476 244.869095,17.301718 244.867523,26.029421 
	C244.860641,64.186279 244.864456,102.343140 244.864532,141.500000 
M44.999569,89.500259 
	C44.954205,104.132744 44.888393,118.765213 44.871891,133.397736 
	C44.863312,141.002182 45.767502,141.677597 52.823006,139.536957 
	C53.564911,139.311859 54.248566,138.894760 54.999393,138.548203 
	C54.999393,110.814819 54.941208,83.383400 55.058968,55.952736 
	C55.077721,51.585209 51.677784,51.659592 49.317532,51.402309 
	C46.743286,51.121689 44.886848,52.752808 44.937996,56.073624 
	C45.104446,66.880226 44.999847,77.691010 44.999569,89.500259 
M274.675751,66.532898 
	C274.675751,90.617149 274.675751,114.701393 274.675751,138.864166 
	C278.526794,139.655930 281.550751,140.277664 284.795563,140.944778 
	C284.881409,139.497940 284.990509,138.514008 284.990875,137.530045 
	C285.000366,110.734192 284.940582,83.938042 285.073334,57.142849 
	C285.089691,53.837734 283.974670,51.540443 280.863739,52.016880 
	C278.764618,52.338360 275.962402,54.288948 275.277496,56.167923 
	C274.248016,58.992199 274.797211,62.391930 274.675751,66.532898 
M170.195084,104.428185 
	C170.195084,89.387589 170.195084,74.347000 170.195084,58.933353 
	C167.590347,58.397022 164.535950,57.768105 161.002625,57.040569 
	C161.002625,72.464134 160.965546,87.545746 161.087296,102.626068 
	C161.095276,103.616135 162.368393,105.462563 162.966492,105.427658 
	C165.262482,105.293678 167.768051,108.830063 170.195084,104.428185 
M191.142212,95.415695 
	C191.142212,86.773651 191.142212,78.131599 191.142212,69.135582 
	C187.636063,68.430283 184.514481,67.802338 180.994751,67.094307 
	C180.994751,77.810669 180.994614,87.952255 180.994812,98.093834 
	C180.994949,106.054535 180.995132,106.054535 189.883026,106.550598 
	C190.298889,103.191818 190.720428,99.787193 191.142212,95.415695 
M95.001457,100.417740 
	C95.001457,102.502663 95.001457,104.587585 95.001457,106.607162 
	C100.720245,106.607162 105.749390,106.607162 110.741753,106.607162 
	C110.741753,99.976265 110.741753,93.739723 110.741753,87.307648 
	C105.457756,87.307648 100.433006,87.307648 95.001457,87.307648 
	C95.001457,91.549133 95.001457,95.494392 95.001457,100.417740 
M200.863998,95.439697 
	C200.864044,96.438812 200.859940,97.437958 200.864761,98.437050 
	C200.909134,107.615196 201.938324,108.266998 210.992981,104.509438 
	C210.992981,96.838219 211.183151,89.019791 210.919220,81.216713 
	C210.769135,76.779907 206.390900,78.382408 203.928635,77.415382 
	C203.486984,77.241913 201.258682,79.652672 201.137680,80.986588 
	C200.732895,85.448647 200.909760,89.963470 200.863998,95.439697 
M228.477753,87.001457 
	C226.070526,87.001457 223.663300,87.001457 221.420593,87.001457 
	C221.420593,94.120087 221.420593,100.477478 221.420593,106.701614 
	C226.091095,106.701614 230.338211,106.701614 234.659668,106.701614 
	C234.659668,100.045692 234.659668,93.691238 234.659668,87.001465 
	C232.691177,87.001465 231.059265,87.001465 228.477753,87.001457 
M31.512667,86.994247 
	C26.596115,86.262154 24.419537,88.303169 24.828985,93.319641 
	C25.070221,96.275192 24.711380,99.292892 25.109785,102.216225 
	C25.279356,103.460464 26.469210,105.134453 27.593336,105.558670 
	C29.778513,106.383331 32.244709,106.463348 34.998447,106.918617 
	C34.998447,100.777817 35.111843,95.177948 34.883118,89.592094 
	C34.846420,88.695862 33.280926,87.862221 31.512667,86.994247 
M294.999420,98.437881 
	C294.999420,101.168251 294.999420,103.898628 294.999420,106.874763 
	C297.926697,106.379845 300.090759,106.210274 302.117615,105.591278 
	C303.185822,105.265060 304.790558,104.188881 304.825958,103.392319 
	C305.065857,97.998550 304.951263,92.589012 304.951263,87.304794 
	C301.265747,87.304794 298.340881,87.304794 294.999420,87.304794 
	C294.999420,90.891487 294.999420,94.178673 294.999420,98.437881 
M140.988205,103.090874 
	C143.507797,104.621712 146.027374,106.152550 149.787949,108.437378 
	C149.787949,102.848640 149.787949,99.123047 149.787949,94.620613 
	C146.137634,95.590248 143.646576,96.251945 140.976334,96.961243 
	C140.976334,98.929886 140.976334,100.582146 140.988205,103.090874 
M141.002335,59.977417 
	C141.002335,62.230835 141.002335,64.484253 141.002335,66.728134 
	C144.684311,66.728134 147.617538,66.728134 150.794205,66.728134 
	C150.871460,65.344803 151.000763,64.213776 150.980225,63.085484 
	C150.956680,61.790684 150.800354,60.498302 150.695541,59.124260 
	C148.002518,58.593586 145.573257,57.986839 143.107117,57.716290 
	C142.467087,57.646080 141.711716,58.627262 141.002335,59.977417 
z"/>
<path fill="#ffffff" opacity="1.000000" stroke="none" 
	d="
M139.008209,163.994965 
	C137.621384,161.306290 136.484695,158.898041 135.138199,156.613434 
	C132.059128,151.389038 128.519043,146.402039 125.844444,140.983810 
	C123.461411,136.156265 120.600060,130.939697 120.374222,125.788536 
	C119.670235,109.730919 120.116081,93.622894 120.116081,77.271217 
	C131.191910,77.271217 140.911575,77.271217 150.870407,77.271217 
	C150.369659,79.469391 150.408020,81.734772 149.359039,83.244736 
	C148.232315,84.866615 146.187103,86.607430 144.361176,86.834114 
	C140.134506,87.358841 135.798264,87.000946 130.992477,87.000946 
	C131.677994,96.052071 132.163971,104.624252 133.163361,113.136162 
	C133.299530,114.296005 135.872955,115.575165 137.536209,116.080376 
	C144.915527,118.321945 152.488846,120.439117 156.671585,127.567299 
	C158.969711,131.483704 160.392380,136.017120 161.600616,140.438782 
	C162.664658,144.332687 164.541000,146.551605 168.877655,146.458572 
	C168.318512,136.385193 168.292297,126.197044 160.594986,117.279152 
	C177.968155,117.279152 194.165619,117.279152 211.657089,117.279152 
	C210.848419,124.317352 211.330444,131.600754 209.029953,137.861771 
	C203.472336,152.987350 201.623779,168.452759 201.656937,184.345016 
	C201.693008,201.638367 201.665131,218.931854 201.665131,236.611115 
	C181.062576,236.611115 161.360458,236.611115 141.326828,236.611115 
	C141.326828,216.920914 141.326828,197.203644 141.326828,177.121246 
	C147.069473,176.369873 152.764832,175.624680 158.711166,174.846664 
	C158.711166,172.932129 158.711166,171.205627 158.711166,169.462921 
	C151.942917,168.138565 144.232666,171.191589 139.008209,163.994965 
z"/>
<path fill="#4BE488" opacity="1.000000" stroke="none" 
	d="
M80.832825,17.001286 
	C84.037689,16.614706 85.059090,17.595881 85.056702,20.534544 
	C85.015892,70.689384 85.060852,120.844337 85.155777,170.999146 
	C85.164108,175.401215 83.486275,177.269806 78.920609,177.194092 
	C62.702225,176.925201 64.990410,178.711029 64.929451,163.391556 
	C64.749115,118.068207 64.864594,72.743683 64.865234,27.419617 
	C64.865387,16.825653 65.127869,16.579000 75.859718,16.918850 
	C77.357849,16.966291 78.857216,16.974602 80.832825,17.001286 
z"/>
<path fill="#4BE488" opacity="1.000000" stroke="none" 
	d="
M244.864456,141.000000 
	C244.864456,102.343140 244.860641,64.186279 244.867523,26.029421 
	C244.869095,17.301718 245.486145,16.731476 254.253235,16.860575 
	C257.572937,16.909462 260.893951,16.868515 264.999023,16.868515 
	C264.999023,18.811481 264.997772,20.392866 264.999237,21.974249 
	C265.044434,70.793556 265.091827,119.612854 265.127258,168.432159 
	C265.128479,170.096024 265.497223,172.005859 264.815521,173.357712 
	C264.069275,174.837585 262.442413,176.548676 260.947845,176.831848 
	C258.054413,177.380051 254.933929,176.648438 251.998749,177.074921 
	C246.189056,177.919098 245.145111,174.255310 245.050537,169.987259 
	C244.840240,160.494781 244.909332,150.996140 244.864456,141.000000 
z"/>
<path fill="#4BE488" opacity="1.000000" stroke="none" 
	d="
M44.999569,89.000221 
	C44.999847,77.691010 45.104446,66.880226 44.937996,56.073624 
	C44.886848,52.752808 46.743286,51.121689 49.317532,51.402309 
	C51.677784,51.659592 55.077721,51.585209 55.058968,55.952736 
	C54.941208,83.383400 54.999393,110.814819 54.999393,138.548203 
	C54.248566,138.894760 53.564911,139.311859 52.823006,139.536957 
	C45.767502,141.677597 44.863312,141.002182 44.871891,133.397736 
	C44.888393,118.765213 44.954205,104.132744 44.999569,89.000221 
z"/>
<path fill="#4BE488" opacity="1.000000" stroke="none" 
	d="
M274.675476,66.039948 
	C274.797211,62.391930 274.248016,58.992199 275.277496,56.167923 
	C275.962402,54.288948 278.764618,52.338360 280.863739,52.016880 
	C283.974670,51.540443 285.089691,53.837734 285.073334,57.142849 
	C284.940582,83.938042 285.000366,110.734192 284.990875,137.530045 
	C284.990509,138.514008 284.881409,139.497940 284.795563,140.944778 
	C281.550751,140.277664 278.526794,139.655930 274.675751,138.864166 
	C274.675751,114.701393 274.675751,90.617149 274.675476,66.039948 
z"/>
<path fill="#ffffff" opacity="1.000000" stroke="none" 
	d="
M170.028870,104.807457 
	C167.768051,108.830063 165.262482,105.293678 162.966492,105.427658 
	C162.368393,105.462563 161.095276,103.616135 161.087296,102.626068 
	C160.965546,87.545746 161.002625,72.464134 161.002625,57.040569 
	C164.535950,57.768105 167.590347,58.397022 170.195084,58.933353 
	C170.195084,74.347000 170.195084,89.387589 170.028870,104.807457 
z"/>
<path fill="#ffffff" opacity="1.000000" stroke="none" 
	d="
M191.142090,95.899132 
	C190.720428,99.787193 190.298889,103.191818 189.883026,106.550598 
	C180.995132,106.054535 180.994949,106.054535 180.994812,98.093834 
	C180.994614,87.952255 180.994751,77.810669 180.994751,67.094307 
	C184.514481,67.802338 187.636063,68.430283 191.142212,69.135582 
	C191.142212,78.131599 191.142212,86.773651 191.142090,95.899132 
z"/>
<path fill="#4BE488" opacity="1.000000" stroke="none" 
	d="
M95.001457,99.928696 
	C95.001457,95.494392 95.001457,91.549133 95.001457,87.307648 
	C100.433006,87.307648 105.457756,87.307648 110.741753,87.307648 
	C110.741753,93.739723 110.741753,99.976265 110.741753,106.607162 
	C105.749390,106.607162 100.720245,106.607162 95.001457,106.607162 
	C95.001457,104.587585 95.001457,102.502663 95.001457,99.928696 
z"/>
<path fill="#ffffff" opacity="1.000000" stroke="none" 
	d="
M200.863922,94.948891 
	C200.909760,89.963470 200.732895,85.448647 201.137680,80.986588 
	C201.258682,79.652672 203.486984,77.241913 203.928635,77.415382 
	C206.390900,78.382408 210.769135,76.779907 210.919220,81.216713 
	C211.183151,89.019791 210.992981,96.838219 210.992981,104.509438 
	C201.938324,108.266998 200.909134,107.615196 200.864761,98.437050 
	C200.859940,97.437958 200.864044,96.438812 200.863922,94.948891 
z"/>
<path fill="#4BE488" opacity="1.000000" stroke="none" 
	d="
M228.952560,87.001465 
	C231.059265,87.001465 232.691177,87.001465 234.659668,87.001465 
	C234.659668,93.691238 234.659668,100.045692 234.659668,106.701614 
	C230.338211,106.701614 226.091095,106.701614 221.420593,106.701614 
	C221.420593,100.477478 221.420593,94.120087 221.420593,87.001457 
	C223.663300,87.001457 226.070526,87.001457 228.952560,87.001465 
z"/>
<path fill="#4BE488" opacity="1.000000" stroke="none" 
	d="
M31.967415,86.996948 
	C33.280926,87.862221 34.846420,88.695862 34.883118,89.592094 
	C35.111843,95.177948 34.998447,100.777817 34.998447,106.918617 
	C32.244709,106.463348 29.778513,106.383331 27.593336,105.558670 
	C26.469210,105.134453 25.279356,103.460464 25.109785,102.216225 
	C24.711380,99.292892 25.070221,96.275192 24.828985,93.319641 
	C24.419537,88.303169 26.596115,86.262154 31.967415,86.996948 
z"/>
<path fill="#4BE488" opacity="1.000000" stroke="none" 
	d="
M294.999420,97.951866 
	C294.999420,94.178673 294.999420,90.891487 294.999420,87.304794 
	C298.340881,87.304794 301.265747,87.304794 304.951263,87.304794 
	C304.951263,92.589012 305.065857,97.998550 304.825958,103.392319 
	C304.790558,104.188881 303.185822,105.265060 302.117615,105.591278 
	C300.090759,106.210274 297.926697,106.379845 294.999420,106.874763 
	C294.999420,103.898628 294.999420,101.168251 294.999420,97.951866 
z"/>
<path fill="#ffffff" opacity="1.000000" stroke="none" 
	d="
M140.982269,102.662636 
	C140.976334,100.582146 140.976334,98.929886 140.976334,96.961243 
	C143.646576,96.251945 146.137634,95.590248 149.787949,94.620613 
	C149.787949,99.123047 149.787949,102.848640 149.787949,108.437378 
	C146.027374,106.152550 143.507797,104.621712 140.982269,102.662636 
z"/>
<path fill="#ffffff" opacity="1.000000" stroke="none" 
	d="
M141.005829,59.551464 
	C141.711716,58.627262 142.467087,57.646080 143.107117,57.716290 
	C145.573257,57.986839 148.002518,58.593586 150.695541,59.124260 
	C150.800354,60.498302 150.956680,61.790684 150.980225,63.085484 
	C151.000763,64.213776 150.871460,65.344803 150.794205,66.728134 
	C147.617538,66.728134 144.684311,66.728134 141.002335,66.728134 
	C141.002335,64.484253 141.002335,62.230835 141.005829,59.551464 
z"/>
</svg>