<svg width="774" height="603" viewBox="0 0 774 603" fill="none" xmlns="http://www.w3.org/2000/svg">
  <path opacity="0.3"
    d="M450.766 254.129C460.975 191.052 490.965 132.857 536.401 87.9593C592.246 33.0323 667.368 2.17585 745.672 2.00014C749.242 1.98851 752.779 2.68217 756.081 4.04137C759.383 5.40056 762.385 7.39852 764.913 9.92076C767.442 12.443 769.448 15.4399 770.817 18.7396C772.186 22.0393 772.891 25.577 772.891 29.1498V29.6804C772.891 36.9044 770.023 43.8325 764.919 48.9407C759.814 54.0488 752.891 56.9185 745.672 56.9185C689.77 56.9529 635.574 76.1874 592.143 111.407C548.712 146.626 518.678 195.696 507.06 250.415C507.06 252.98 443.519 599.734 443.519 599.734L277.287 377.585L109.375 600L2 2.00014H56.8806L140.571 465.932L277.287 287.646L412.323 465.755V466.374L450.766 254.129Z"
    stroke="url(#paint0_linear_576_4991)" stroke-width="2.03401"></path>
  <defs>
    <linearGradient id="paint0_linear_576_4991" x1="7.74121" y1="240" x2="617.718" y2="591.652"
      gradientUnits="userSpaceOnUse">
      <stop stop-color="#037DD3" stop-opacity="0.66"></stop>
      <stop offset="0.433441" stop-color="#037DD3" stop-opacity="0.0575978"></stop>
      <stop offset="0.566799" stop-color="#037DD3" stop-opacity="0"></stop>
      <stop offset="0.839936" stop-color="#037DD3"></stop>
      <stop offset="0.986765" stop-color="#037DD3" stop-opacity="0"></stop>
    </linearGradient>
  </defs>
</svg>
