<?xml version="1.0" encoding="UTF-8"?>
<svg version="1.1" xmlns="http://www.w3.org/2000/svg" width="778" height="299">
<path d="M0 0 C6.93 0 13.86 0 21 0 C21.01981934 2.62501465 21.03963867 5.2500293 21.06005859 7.95458984 C21.12686128 16.61199754 21.20450197 25.26928334 21.28752708 33.92654991 C21.33754732 39.1772432 21.3838767 44.4279158 21.421875 49.67871094 C21.45865564 54.7427163 21.50499556 59.80655095 21.55806351 64.87041092 C21.57664598 66.80574179 21.59173957 68.74110931 21.60334396 70.6764946 C21.62014075 73.38004928 21.64915921 76.08320967 21.68115234 78.78662109 C21.68331253 79.59294479 21.68547272 80.39926849 21.68769836 81.23002625 C21.58940185 85.58128268 21.58940185 85.58128268 24 89 C27.12196336 89.46486718 27.12196336 89.46486718 30.625 89.625 C32.72875 89.74875 34.8325 89.8725 37 90 C37 94.62 37 99.24 37 104 C34.02026385 104.08184423 31.04283168 104.14089764 28.0625 104.1875 C27.23169922 104.21263672 26.40089844 104.23777344 25.54492188 104.26367188 C18.64961543 104.34416183 12.2572914 103.50142579 6.66015625 99.203125 C6.13292969 98.55859375 5.60570312 97.9140625 5.0625 97.25 C4.24458984 96.29867187 4.24458984 96.29867187 3.41015625 95.328125 C-0.46838775 88.92476704 -0.27087203 82.29598524 -0.1953125 75.03515625 C-0.19106766 73.48519203 -0.19106766 73.48519203 -0.18673706 71.90391541 C-0.17559647 68.62332278 -0.15050304 65.34300927 -0.125 62.0625 C-0.1149623 59.83008208 -0.10583783 57.59765986 -0.09765625 55.36523438 C-0.07567721 49.910062 -0.04226084 44.45505095 0 39 C-2.64 39 -5.28 39 -8 39 C-8 33.72 -8 28.44 -8 23 C-5.36 23 -2.72 23 0 23 C0 15.41 0 7.82 0 0 Z " fill="#40E281" transform="translate(308,98)"/>
<path d="M0 0 C6.93 0 13.86 0 21 0 C21.01981934 2.62501465 21.03963867 5.2500293 21.06005859 7.95458984 C21.12686128 16.61199754 21.20450197 25.26928334 21.28752708 33.92654991 C21.33754732 39.1772432 21.3838767 44.4279158 21.421875 49.67871094 C21.45865564 54.7427163 21.50499556 59.80655095 21.55806351 64.87041092 C21.57664598 66.80574179 21.59173957 68.74110931 21.60334396 70.6764946 C21.62014075 73.38004928 21.64915921 76.08320967 21.68115234 78.78662109 C21.68331253 79.59294479 21.68547272 80.39926849 21.68769836 81.23002625 C21.58940185 85.58128268 21.58940185 85.58128268 24 89 C27.12196336 89.46486718 27.12196336 89.46486718 30.625 89.625 C32.72875 89.74875 34.8325 89.8725 37 90 C37 94.62 37 99.24 37 104 C34.02026385 104.08184423 31.04283168 104.14089764 28.0625 104.1875 C27.23169922 104.21263672 26.40089844 104.23777344 25.54492188 104.26367188 C18.64961543 104.34416183 12.2572914 103.50142579 6.66015625 99.203125 C6.13292969 98.55859375 5.60570312 97.9140625 5.0625 97.25 C4.24458984 96.29867187 4.24458984 96.29867187 3.41015625 95.328125 C-0.50620674 88.86232904 -0.26995366 82.14715077 -0.1953125 74.81640625 C-0.1924826 73.76090073 -0.18965271 72.7053952 -0.18673706 71.61790466 C-0.17559415 68.26598496 -0.15050024 64.91433816 -0.125 61.5625 C-0.1149626 59.28190492 -0.10583808 57.00130562 -0.09765625 54.72070312 C-0.07567412 49.14704322 -0.04225537 43.57354111 0 38 C-2.64 38 -5.28 38 -8 38 C-8 33.05 -8 28.1 -8 23 C-5.36 23 -2.72 23 0 23 C0 15.41 0 7.82 0 0 Z " fill="#FFF" transform="translate(559,98)"/>
<path d="M0 0 C6.93 0 13.86 0 21 0 C21.02254828 13.9337962 21.04091349 27.86758037 21.05181217 41.80139065 C21.05704168 48.2706768 21.06414056 54.73994989 21.07543945 61.20922852 C21.08626592 67.446703 21.09227632 73.68416487 21.09487724 79.92164803 C21.09673193 82.30720277 21.10035336 84.69275679 21.10573006 87.0783062 C21.11293729 90.40695591 21.11399108 93.73555279 21.11352539 97.06420898 C21.11712067 98.06114273 21.12071594 99.05807648 21.12442017 100.08522034 C21.1230455 100.98690948 21.12167084 101.88859863 21.12025452 102.81761169 C21.12117631 103.6057447 21.1220981 104.3938777 21.12304783 105.20589352 C21 107 21 107 20 108 C13.4 108 6.8 108 0 108 C0 72.36 0 36.72 0 0 Z " fill="#45E384" transform="translate(214,94)"/>
<path d="M0 0 C8.26532577 -0.39358694 15.12269564 0.51821519 21.875 5.625 C25.65713314 9.1182202 26.79117808 13.11821918 28 18 C28.33 18.99 28.66 19.98 29 21 C29.09865987 22.92524665 29.13824419 24.853734 29.14526367 26.78149414 C29.15164352 27.9702565 29.15802338 29.15901886 29.16459656 30.38380432 C29.16570938 31.67125046 29.1668222 32.95869659 29.16796875 34.28515625 C29.17118455 35.62454768 29.17454886 36.96393876 29.17805481 38.30332947 C29.1840452 41.11523246 29.18589505 43.92710475 29.18530273 46.73901367 C29.18520168 50.31738708 29.19879458 53.89555951 29.21607494 57.47388554 C29.22727985 60.24424618 29.22921928 63.01455975 29.22869301 65.78494072 C29.23042674 67.73783214 29.24122241 69.69070886 29.25224304 71.64356995 C29.20593361 89.86894729 29.20593361 89.86894729 24.125 96.9375 C23.63257813 97.64777344 23.14015625 98.35804688 22.6328125 99.08984375 C18.71513164 103.67296801 14.89826383 104.8887329 9 106 C6.03 106 3.06 106 0 106 C0 100.06 0 94.12 0 88 C2.97 87.01 2.97 87.01 6 86 C8.29657986 82.55513021 8.25262567 81.2712459 8.25878906 77.21508789 C8.26509338 76.02698013 8.27139771 74.83887238 8.27789307 73.61476135 C8.2738446 72.33036667 8.26979614 71.04597198 8.265625 69.72265625 C8.26753845 68.40462509 8.2694519 67.08659393 8.27142334 65.72862244 C8.27437158 62.93858148 8.27008741 60.14866863 8.26074219 57.35864258 C8.24935877 53.78638263 8.25590176 50.21442358 8.26788712 46.64217472 C8.27686338 43.23147795 8.2705729 39.82086156 8.265625 36.41015625 C8.26967346 35.1277858 8.27372192 33.84541534 8.27789307 32.52418518 C8.27158875 31.33292526 8.26528442 30.14166534 8.25878906 28.91430664 C8.25719788 27.86634415 8.25560669 26.81838165 8.25396729 25.73866272 C7.98586424 22.8475667 7.77816841 21.29707043 6 19 C4.02 18.34 2.04 17.68 0 17 C0 11.39 0 5.78 0 0 Z " fill="#FFF" transform="translate(384,95)"/>
<path d="M0 0 C6.6 0 13.2 0 20 0 C20 35.31 20 70.62 20 107 C13.4 107 6.8 107 0 107 C0 71.69 0 36.38 0 0 Z " fill="#FFF" transform="translate(355,94)"/>
<path d="M0 0 C4.95 0 9.9 0 15 0 C14 4 14 4 13 5 C10.32941149 5.14115161 7.67567762 5.04247107 5 5 C5.33 9.62 5.66 14.24 6 19 C7.4025 19.391875 8.805 19.78375 10.25 20.1875 C14.53410508 21.63346953 16.70282758 22.95697654 19 27 C19.350625 28.2375 19.70125 29.475 20.0625 30.75 C20.5265625 32.35875 20.5265625 32.35875 21 34 C22.485 34.495 22.485 34.495 24 35 C23.91131893 33.62391448 23.80314061 32.24908258 23.6875 30.875 C23.62949219 30.10929687 23.57148438 29.34359375 23.51171875 28.5546875 C22.97461071 25.2921371 22.97461071 25.2921371 20 20 C28.25 20 36.5 20 45 20 C45 28.73563218 45 28.73563218 43.046875 33.203125 C39.86465165 42.12120773 40.32129718 51.39514612 40.25 60.75 C40.22178719 62.62242278 40.19185252 64.49482045 40.16015625 66.3671875 C40.08374413 70.9116978 40.04264023 75.45455183 40 80 C30.1 80 20.2 80 10 80 C10 70.1 10 60.2 10 50 C14.455 49.505 14.455 49.505 19 49 C19 48.01 19 47.02 19 46 C18.40832031 46.04382813 17.81664063 46.08765625 17.20703125 46.1328125 C14.51965993 46.12404457 12.52870346 45.93813619 10 45 C8.28192611 42.70923481 7.29862727 40.50042748 6.265625 37.8359375 C5.07764809 34.7872286 5.07764809 34.7872286 2.37890625 32.06640625 C-1.60564702 26.67130053 -0.52212959 19.95136496 -0.3125 13.5625 C-0.28994141 12.25861328 -0.26738281 10.95472656 -0.24414062 9.61132812 C-0.18545432 6.40705604 -0.09578206 3.20337782 0 0 Z " fill="#FFF" transform="translate(106,124)"/>
<path d="M0 0 C6.93 0 13.86 0 21 0 C21 26.73 21 53.46 21 81 C14.4 81 7.8 81 1 81 C-0.71987206 79.28012794 -0.11974788 77.09122971 -0.12442017 74.79867554 C-0.12082489 74.05421173 -0.11722961 73.30974792 -0.11352539 72.54272461 C-0.11367142 71.76229294 -0.11381744 70.98186127 -0.1139679 70.17778015 C-0.11326858 67.5859402 -0.10547536 64.99417122 -0.09765625 62.40234375 C-0.09579213 60.6101536 -0.0943682 58.81796294 -0.09336853 57.02577209 C-0.08954284 52.29929203 -0.07971212 47.57284248 -0.06866455 42.84637451 C-0.05845153 38.0271445 -0.05387115 33.20790958 -0.04882812 28.38867188 C-0.03808989 18.92576565 -0.02049268 9.46289013 0 0 Z " fill="#45E384" transform="translate(272,121)"/>
<path d="M0 0 C6.6 0 13.2 0 20 0 C20 26.4 20 52.8 20 80 C13.4 80 6.8 80 0 80 C0 53.6 0 27.2 0 0 Z " fill="#FFF" transform="translate(673,121)"/>
<path d="M0 0 C0 5.28 0 10.56 0 16 C-0.66 16.33 -1.32 16.66 -2 17 C-2 32.84 -2 48.68 -2 65 C-1.34 65.33 -0.68 65.66 0 66 C0 71.28 0 76.56 0 82 C-8.17021099 82 -13.29120664 80.23330703 -19.4375 74.875 C-24.77552849 65.05302758 -24.46835991 54.44271286 -24.39111328 43.57470703 C-24.37499112 40.87351302 -24.39104781 38.17380568 -24.41015625 35.47265625 C-24.40817426 33.72916342 -24.40433149 31.9856715 -24.3984375 30.2421875 C-24.40451019 29.4481955 -24.41058289 28.65420349 -24.4168396 27.83615112 C-24.34567077 22.0814807 -23.03082792 17.35842651 -21 12 C-20.70738281 11.05640625 -20.41476562 10.1128125 -20.11328125 9.140625 C-18.63307067 6.29446572 -16.95616025 5.32734767 -14.1875 3.75 C-12.90939453 2.99976562 -12.90939453 2.99976562 -11.60546875 2.234375 C-7.60338297 0.33833436 -4.42129512 0 0 0 Z " fill="#FFF" transform="translate(514,120)"/>
<path d="M0 0 C8.6636983 0.65634078 14.06428701 2.26216363 20 9 C26.43073872 17.33614278 25.37265144 29.47741991 25.37060547 39.47607422 C25.37497927 41.86368173 25.41140333 44.24943643 25.44921875 46.63671875 C25.53109165 57.73590167 24.87512694 69.22042935 16.69921875 77.6640625 C11.34451178 81.87397005 6.78107826 82 0 82 C0 77.05 0 72.1 0 67 C1.485 66.505 1.485 66.505 3 66 C3.90750284 63.27749147 4.13058719 61.66811907 4.14526367 58.86743164 C4.15164352 58.03969742 4.15802338 57.2119632 4.16459656 56.35914612 C4.16570938 55.46847946 4.1668222 54.57781281 4.16796875 53.66015625 C4.17129715 52.7416539 4.17462555 51.82315155 4.17805481 50.8768158 C4.18311728 48.93423971 4.18546334 46.99165494 4.18530273 45.04907227 C4.18748897 42.07749102 4.20565116 39.10628117 4.22460938 36.13476562 C4.22754348 34.2473971 4.22952816 32.36002682 4.23046875 30.47265625 C4.23765427 29.58401382 4.24483978 28.6953714 4.25224304 27.77980042 C4.24916641 26.94891403 4.24608978 26.11802765 4.24291992 25.26196289 C4.24434494 24.53376846 4.24576996 23.80557404 4.24723816 23.05531311 C3.95773478 20.64864543 3.27067394 19.05645718 2 17 C1.34 16.67 0.68 16.34 0 16 C0 10.72 0 5.44 0 0 Z " fill="#FFF" transform="translate(456,120)"/>
<path d="M0 0 C8.57524511 0.55262691 14.13419124 2.34151438 20 9 C26.362616 17.24783556 25.37270064 29.08895852 25.37060547 38.99389648 C25.37497274 41.29811932 25.41138167 43.60041174 25.44921875 45.90429688 C25.5303632 56.54422013 24.81825132 67.2490495 18.25 76.125 C15.05190217 79.3714318 11.47299502 81.17457913 7 82 C4.69 82 2.38 82 0 82 C0 77.05 0 72.1 0 67 C1.485 66.505 1.485 66.505 3 66 C3.92067628 63.23797117 4.14031536 61.52242964 4.17700195 58.66796875 C4.18983719 57.79696533 4.20267242 56.92596191 4.21589661 56.02856445 C4.22328354 55.09101318 4.23067047 54.15346191 4.23828125 53.1875 C4.246353 52.22223389 4.25442474 51.25696777 4.26274109 50.26245117 C4.27656813 48.22153515 4.28729645 46.18059613 4.29516602 44.13964844 C4.31243414 41.01192963 4.3563387 37.88525295 4.40039062 34.7578125 C4.4105129 32.77604944 4.41903045 30.79427741 4.42578125 28.8125 C4.44328934 27.87494873 4.46079742 26.93739746 4.47883606 25.97143555 C4.47080012 23.57896494 4.43975987 21.35188874 4 19 C2.11762417 17.08676241 2.11762417 17.08676241 0 16 C-0.29561076 13.12961948 -0.37943016 10.66245255 -0.25 7.8125 C-0.23195313 7.06291016 -0.21390625 6.31332031 -0.1953125 5.54101562 C-0.14824109 3.6934629 -0.07649766 1.84656841 0 0 Z " fill="#FFF" transform="translate(637,120)"/>
<path d="M0 0 C0 5.28 0 10.56 0 16 C-0.99 16.33 -1.98 16.66 -3 17 C-4.129237 19.258474 -4.13211756 20.4972672 -4.14526367 23.00317383 C-4.15164352 23.82775589 -4.15802338 24.65233795 -4.16459656 25.50190735 C-4.16570938 26.39459824 -4.1668222 27.28728912 -4.16796875 28.20703125 C-4.17129715 29.12457687 -4.17462555 30.0421225 -4.17805481 30.98747253 C-4.18312369 32.9318288 -4.18546315 34.87619378 -4.18530273 36.82055664 C-4.18748349 39.79002328 -4.20562375 42.75911504 -4.22460938 45.72851562 C-4.22754447 47.61718623 -4.22952849 49.5058586 -4.23046875 51.39453125 C-4.23765427 52.28114944 -4.24483978 53.16776764 -4.25224304 54.08125305 C-4.35389219 61.08380339 -4.35389219 61.08380339 -1 67 C-0.92686433 69.53049402 -0.90752473 72.03304837 -0.9375 74.5625 C-0.94201172 75.27341797 -0.94652344 75.98433594 -0.95117188 76.71679688 C-0.96299136 78.47790013 -0.98092737 80.23896036 -1 82 C-7.87306186 82.26175051 -12.42962377 81.05032441 -18 77 C-24.20759123 69.53645426 -25.31735763 59.7312918 -25.265625 50.34375 C-25.26753845 49.55657593 -25.2694519 48.76940186 -25.27142334 47.95837402 C-25.27277334 46.3080208 -25.2691606 44.65765652 -25.26074219 43.00732422 C-25.25002544 40.50593827 -25.26067794 38.00527032 -25.2734375 35.50390625 C-25.27211569 33.88801928 -25.26955287 32.27213274 -25.265625 30.65625 C-25.26967346 29.92160522 -25.27372192 29.18696045 -25.27789307 28.43005371 C-25.20740161 20.47960823 -24.13732612 13.31157209 -19 7 C-13.12204186 1.43976933 -8.07109487 0 0 0 Z " fill="#FFF" transform="translate(448,120)"/>
<path d="M0 0 C0.0809313 2.60478883 0.14045434 5.20706653 0.1875 7.8125 C0.21263672 8.55048828 0.23777344 9.28847656 0.26367188 10.04882812 C0.29296875 12.20703125 0.29296875 12.20703125 0 16 C-0.73955429 16.72298279 -0.73955429 16.72298279 -1.49404907 17.46057129 C-3.4858159 19.49661574 -3.3796202 20.61199945 -3.38818359 23.42382812 C-3.39764008 24.31485229 -3.40709656 25.20587646 -3.4168396 26.12390137 C-3.41076691 27.08332642 -3.40469421 28.04275146 -3.3984375 29.03125 C-3.40130768 30.01871216 -3.40417786 31.00617432 -3.40713501 32.02355957 C-3.40917675 34.1115781 -3.40363925 36.1996157 -3.39111328 38.28759766 C-3.3750615 41.48773883 -3.39095859 44.68661696 -3.41015625 47.88671875 C-3.40817384 49.91406529 -3.40433021 51.94141105 -3.3984375 53.96875 C-3.40451019 54.92817505 -3.41058289 55.8876001 -3.4168396 56.87609863 C-3.40738312 57.7671228 -3.39792664 58.65814697 -3.38818359 59.57617188 C-3.38579681 60.35988159 -3.38341003 61.14359131 -3.38095093 61.9510498 C-2.90483441 64.51184954 -1.83405942 65.22382039 0 67 C0.2172101 69.64996326 0.28351554 72.05076558 0.1875 74.6875 C0.16719727 75.7403418 0.16719727 75.7403418 0.14648438 76.81445312 C0.11120182 78.54329829 0.05739583 80.27174765 0 82 C-6.93416646 82.28998974 -11.25383591 80.76715303 -17 77 C-25.30138318 68.27290486 -24.45177162 54.04934521 -24.33618164 42.78100586 C-24.31243907 40.30614915 -24.31566186 37.83236498 -24.32226562 35.35742188 C-24.2863589 14.72324094 -24.2863589 14.72324094 -18 7 C-12.65789641 1.94665876 -7.30559938 -0.20550209 0 0 Z " fill="#FFF" transform="translate(628,120)"/>
<path d="M0 0 C1.23556641 0.01740234 1.23556641 0.01740234 2.49609375 0.03515625 C3.32238281 0.04417969 4.14867188 0.05320312 5 0.0625 C5.63808594 0.07410156 6.27617188 0.08570312 6.93359375 0.09765625 C6.95671751 10.38070163 6.974509 20.66374087 6.98540592 30.94680691 C6.99063468 35.72113905 6.99773219 40.49545346 7.0090332 45.26977539 C7.01986235 49.87331887 7.02587064 54.47684524 7.02847099 59.08040047 C7.03032519 60.84075248 7.03394571 62.60110351 7.03932381 64.36144829 C7.04653461 66.81837902 7.04758468 69.2752382 7.04711914 71.73217773 C7.05071442 72.4672908 7.05430969 73.20240387 7.05801392 73.95979309 C7.04764591 78.98360409 7.04764591 78.98360409 5.93359375 80.09765625 C4.12109375 80.23046875 4.12109375 80.23046875 1.93359375 80.22265625 C1.21171875 80.22523438 0.48984375 80.2278125 -0.25390625 80.23046875 C-2.06640625 80.09765625 -2.06640625 80.09765625 -3.06640625 79.09765625 C-3.16670482 76.6690859 -3.2025905 74.26894012 -3.19580078 71.83984375 C-3.1975531 71.08052551 -3.19930542 70.32120728 -3.20111084 69.53887939 C-3.20552955 67.01678209 -3.20259131 64.49475432 -3.19921875 61.97265625 C-3.19989178 60.22770169 -3.2008618 58.48274721 -3.20211792 56.73779297 C-3.20359492 53.0758373 -3.20144028 49.41390597 -3.19677734 45.75195312 C-3.19108005 41.04721133 -3.19435905 36.34252657 -3.20034981 31.63778687 C-3.20395537 28.03311734 -3.20281686 24.42846143 -3.20022202 20.8237915 C-3.19955273 19.08856194 -3.20038121 17.35333116 -3.20270157 15.61810303 C-3.20522802 13.19719138 -3.20138763 10.77637339 -3.19580078 8.35546875 C-3.19782501 7.63127747 -3.19984924 6.90708618 -3.20193481 6.16094971 C-3.17610629 0.15009954 -3.17610629 0.15009954 0 0 Z " fill="#53E68D" transform="translate(81.06640625,93.90234375)"/>
<path d="M0 0 C1.23556641 0.01740234 1.23556641 0.01740234 2.49609375 0.03515625 C3.32238281 0.04417969 4.14867187 0.05320312 5 0.0625 C5.63808594 0.07410156 6.27617187 0.08570312 6.93359375 0.09765625 C6.95671751 10.38070163 6.974509 20.66374087 6.98540592 30.94680691 C6.99063468 35.72113905 6.99773219 40.49545346 7.0090332 45.26977539 C7.01986235 49.87331887 7.02587064 54.47684524 7.02847099 59.08040047 C7.03032519 60.84075248 7.03394571 62.60110351 7.03932381 64.36144829 C7.04653461 66.81837902 7.04758468 69.2752382 7.04711914 71.73217773 C7.05071442 72.4672908 7.05430969 73.20240387 7.05801392 73.95979309 C7.04764591 78.98360409 7.04764591 78.98360409 5.93359375 80.09765625 C3.26300524 80.23880786 0.60927137 80.14012732 -2.06640625 80.09765625 C-3.55518159 77.12010558 -3.20509137 74.08251026 -3.19580078 70.81811523 C-3.1975531 70.06840454 -3.19930542 69.31869385 -3.20111084 68.54626465 C-3.20552104 66.06206973 -3.20259458 63.57794568 -3.19921875 61.09375 C-3.19989196 59.37264492 -3.20086212 57.65153993 -3.20211792 55.93043518 C-3.20359371 52.32153418 -3.20144389 48.7126579 -3.19677734 45.10375977 C-3.19107585 40.46742762 -3.19436247 35.8311533 -3.20034981 31.19482327 C-3.20395499 27.64076803 -3.20281711 24.08672662 -3.20022202 20.53267097 C-3.19955285 18.8225612 -3.20038082 17.11245018 -3.20270157 15.40234184 C-3.20522785 13.0174614 -3.20138807 10.63267605 -3.19580078 8.24780273 C-3.19782501 7.53453323 -3.19984924 6.82126373 -3.20193481 6.08638 C-3.17603762 0.1500963 -3.17603762 0.1500963 0 0 Z " fill="#53E68D" transform="translate(171.06640625,93.90234375)"/>
<path d="M0 0 C6.59152806 -0.23676466 11.80612402 1.19942509 16.83984375 5.61328125 C22.12205163 11.43791635 23.31946551 17.09465875 23.125 24.875 C23.08375 27.22625 23.0425 29.5775 23 32 C16.4 32 9.8 32 3 32 C2.8046875 29.00520833 2.609375 26.01041667 2.4140625 23.015625 C2.19597241 20.09118954 2.19597241 20.09118954 0.96875 18.125 C-0.55378068 14.78525528 -0.2076215 11.34721288 -0.125 7.75 C-0.11597656 7.00492187 -0.10695313 6.25984375 -0.09765625 5.4921875 C-0.07418358 3.66131941 -0.03831525 1.83061762 0 0 Z " fill="#FFF" transform="translate(523,120)"/>
<path d="M0 0 C6.6 0 13.2 0 20 0 C20.54491609 18.70878578 20.54491609 18.70878578 14.625 25.875 C8.74506426 30.63494798 4.46347155 31.57972684 -3 32 C-3.05397335 29.5622037 -3.09365616 27.12560315 -3.125 24.6875 C-3.14175781 23.99720703 -3.15851562 23.30691406 -3.17578125 22.59570312 C-3.21217794 18.82864604 -3.14378864 17.21568296 -1 14 C-0.70547416 11.61322924 -0.5071783 9.21373906 -0.375 6.8125 C-0.25125 4.564375 -0.1275 2.31625 0 0 Z " fill="#FFF" transform="translate(526,170)"/>
<path d="M0 0 C6.93 0 13.86 0 21 0 C21 5.94 21 11.88 21 18 C14.07 18 7.14 18 0 18 C0 12.06 0 6.12 0 0 Z " fill="#4BE488" transform="translate(243,94)"/>
<path d="M0 0 C6.27 0 12.54 0 19 0 C19 5.94 19 11.88 19 18 C12.73 18 6.46 18 0 18 C0 12.06 0 6.12 0 0 Z " fill="#47E385" transform="translate(243,138)"/>
<path d="M0 0 C6.93 0 13.86 0 21 0 C21 5.28 21 10.56 21 16 C14.07 16 7.14 16 0 16 C0 10.72 0 5.44 0 0 Z " fill="#4EE58A" transform="translate(272,94)"/>
<path d="M0 0 C0.99 0.33 1.98 0.66 3 1 C3 15.52 3 30.04 3 45 C1.35 44.67 -0.3 44.34 -2 44 C-2.04934399 38.05518819 -2.08569282 32.11049491 -2.10986328 26.16552734 C-2.11993671 24.14206873 -2.13359595 22.11862472 -2.15087891 20.09521484 C-2.17506847 17.19104411 -2.18646949 14.28706539 -2.1953125 11.3828125 C-2.20563507 10.47443634 -2.21595764 9.56606018 -2.22659302 8.63015747 C-2.22674408 7.78943695 -2.22689514 6.94871643 -2.22705078 6.08251953 C-2.231492 5.34083527 -2.23593323 4.599151 -2.24050903 3.83499146 C-2 2 -2 2 0 0 Z " fill="#53E68D" transform="translate(185,111)"/>
<path d="M0 0 C0.99 0.33 1.98 0.66 3 1 C3 15.19 3 29.38 3 44 C1.02 44.495 1.02 44.495 -1 45 C-2 44 -2 44 -2.12025452 42.24729919 C-2.11803391 41.48562943 -2.11581329 40.72395966 -2.11352539 39.93920898 C-2.11344986 39.07839218 -2.11337433 38.21757538 -2.11329651 37.33067322 C-2.10813522 36.39526199 -2.10297394 35.45985077 -2.09765625 34.49609375 C-2.0962413 33.54307877 -2.09482635 32.59006378 -2.09336853 31.60816956 C-2.08775152 28.55124835 -2.07519616 25.49439923 -2.0625 22.4375 C-2.05748719 20.37044376 -2.05292391 18.30338638 -2.04882812 16.23632812 C-2.03777656 11.15752412 -2.02050055 6.0787743 -2 1 C-1.34 0.67 -0.68 0.34 0 0 Z " fill="#53E68D" transform="translate(70,111)"/>
<path d="M0 0 C2.908125 0.0309375 2.908125 0.0309375 5.875 0.0625 C5.875 5.0125 5.875 9.9625 5.875 15.0625 C1.255 15.0625 -3.365 15.0625 -8.125 15.0625 C-8.125 10.4425 -8.125 5.8225 -8.125 1.0625 C-5.36047967 -0.31976016 -3.0788637 -0.03275387 0 0 Z " fill="#FFF" transform="translate(710.125,120.9375)"/>
<path d="M0 0 C2.97 0 5.94 0 9 0 C9 5.28 9 10.56 9 16 C6.03 16 3.06 16 0 16 C0 10.72 0 5.44 0 0 Z " fill="#FFF" transform="translate(586,121)"/>
<path d="M0 0 C2.97 0 5.94 0 9 0 C9 5.28 9 10.56 9 16 C6.03 16 3.06 16 0 16 C0 10.72 0 5.44 0 0 Z " fill="#53E68D" transform="translate(335,121)"/>
<path d="M0 0 C2.475 0.495 2.475 0.495 5 1 C5.02893932 4.62498334 5.04677792 8.24993713 5.0625 11.875 C5.07087891 12.90753906 5.07925781 13.94007812 5.08789062 15.00390625 C5.09111328 15.99003906 5.09433594 16.97617188 5.09765625 17.9921875 C5.10289307 18.90339355 5.10812988 19.81459961 5.11352539 20.75341797 C5 23 5 23 4 25 C2.68 24.67 1.36 24.34 0 24 C0 16.08 0 8.16 0 0 Z " fill="#FFF" transform="translate(126,114)"/>
<path d="M0 0 C2.475 0.495 2.475 0.495 5 1 C5.02690104 3.79173055 5.04679053 6.58320348 5.0625 9.375 C5.07087891 10.1690625 5.07925781 10.963125 5.08789062 11.78125 C5.11328125 17.7734375 5.11328125 17.7734375 4 20 C2.68 19.67 1.36 19.34 0 19 C0 12.73 0 6.46 0 0 Z " fill="#FFF" transform="translate(136,119)"/>
<path d="M0 0 C2.64 0 5.28 0 8 0 C8 3.3 8 6.6 8 10 C5.36 10 2.72 10 0 10 C0 6.7 0 3.4 0 0 Z " fill="#53E68D" transform="translate(93,129)"/>
<path d="M0 0 C1.98 0.495 1.98 0.495 4 1 C4 5.29 4 9.58 4 14 C2.68 14.33 1.36 14.66 0 15 C-1 14 -1 14 -1.1328125 11.09375 C-1.13023437 9.9078125 -1.12765625 8.721875 -1.125 7.5 C-1.12757813 6.3140625 -1.13015625 5.128125 -1.1328125 3.90625 C-1 1 -1 1 0 0 Z " fill="#FFF" transform="translate(147,124)"/>
<path d="M0 0 C2.31 0 4.62 0 7 0 C7 3.3 7 6.6 7 10 C4.69 10 2.38 10 0 10 C0 6.7 0 3.4 0 0 Z " fill="#53E68D" transform="translate(156,129)"/>
<path d="M0 0 C1.65 0 3.3 0 5 0 C5 2.97 5 5.94 5 9 C3.35 9.33 1.7 9.66 0 10 C0 6.7 0 3.4 0 0 Z " fill="#53E68D" transform="translate(193,129)"/>
<path d="M0 0 C1.32 0 2.64 0 4 0 C4 3.3 4 6.6 4 10 C2.35 9.67 0.7 9.34 -1 9 C-1.09765625 2.84765625 -1.09765625 2.84765625 -1 1 C-0.67 0.67 -0.34 0.34 0 0 Z " fill="#53E68D" transform="translate(59,129)"/>
<path d="M0 0 C2.475 0.495 2.475 0.495 5 1 C5 2.32 5 3.64 5 5 C3.35 5 1.7 5 0 5 C0 3.35 0 1.7 0 0 Z " fill="#FFF" transform="translate(116,114)"/>
<path d="M0 0 C1.125 3.75 1.125 3.75 0 6 C-1.32 5.67 -2.64 5.34 -4 5 C-4 3.68 -4 2.36 -4 1 C-2.68 0.67 -1.36 0.34 0 0 Z " fill="#FFF" transform="translate(120,133)"/>
</svg>
